<?xml version="1.0" encoding="UTF-8" standalone="no"?>
<!-- Created with Inkscape (http://www.inkscape.org/) -->

<svg
   xmlns:dc="http://purl.org/dc/elements/1.1/"
   xmlns:cc="http://creativecommons.org/ns#"
   xmlns:rdf="http://www.w3.org/1999/02/22-rdf-syntax-ns#"
   xmlns:svg="http://www.w3.org/2000/svg"
   xmlns="http://www.w3.org/2000/svg"
   xmlns:xlink="http://www.w3.org/1999/xlink"
   xmlns:sodipodi="http://sodipodi.sourceforge.net/DTD/sodipodi-0.dtd"
   xmlns:inkscape="http://www.inkscape.org/namespaces/inkscape"
   width="130.79762mm"
   height="130.79762mm"
   viewBox="0 0 130.79762 130.79762"
   version="1.1"
   id="svg46584"
   inkscape:version="0.92.2 (5c3e80d, 2017-08-06)"
   sodipodi:docname="icon1c.svg">
  <defs
     id="defs46578">
    <linearGradient
       inkscape:collect="always"
       xlink:href="#linearGradient5366"
       id="linearGradient1202"
       gradientUnits="userSpaceOnUse"
       gradientTransform="matrix(-0.16326222,0,0,0.16326222,112.56447,118.81517)"
       x1="70.608101"
       y1="25.380606"
       x2="70.608101"
       y2="265.32602" />
    <linearGradient
       inkscape:collect="always"
       id="linearGradient5366">
      <stop
         style="stop-color:#fff4df;stop-opacity:1"
         offset="0"
         id="stop5354" />
      <stop
         id="stop5356"
         offset="0.07907566"
         style="stop-color:#ffdfa2;stop-opacity:1" />
      <stop
         style="stop-color:#e9bf6c;stop-opacity:1"
         offset="0.31252655"
         id="stop5358" />
      <stop
         id="stop5360"
         offset="0.66750771"
         style="stop-color:#c7a259;stop-opacity:1" />
      <stop
         style="stop-color:#3c2f15;stop-opacity:1;"
         offset="0.90416181"
         id="stop5362" />
      <stop
         style="stop-color:#1a150a;stop-opacity:1"
         offset="1"
         id="stop5364" />
    </linearGradient>
    <linearGradient
       inkscape:collect="always"
       xlink:href="#linearGradient5366"
       id="linearGradient9760"
       gradientUnits="userSpaceOnUse"
       gradientTransform="matrix(-0.10884676,0,0,0.10884676,124.2998,154.27896)"
       x1="70.608101"
       y1="25.380606"
       x2="70.608101"
       y2="265.32602" />
  </defs>
  <sodipodi:namedview
     id="base"
     pagecolor="#ffffff"
     bordercolor="#666666"
     borderopacity="1.0"
     inkscape:pageopacity="0.0"
     inkscape:pageshadow="2"
     inkscape:zoom="0.7"
     inkscape:cx="367.13286"
     inkscape:cy="435.55173"
     inkscape:document-units="mm"
     inkscape:current-layer="layer1"
     showgrid="false"
     inkscape:window-width="1769"
     inkscape:window-height="1051"
     inkscape:window-x="-9"
     inkscape:window-y="-9"
     inkscape:window-maximized="1" />
  <metadata
     id="metadata46581">
    <rdf:RDF>
      <cc:Work
         rdf:about="">
        <dc:format>image/svg+xml</dc:format>
        <dc:type
           rdf:resource="http://purl.org/dc/dcmitype/StillImage" />
        <dc:title />
      </cc:Work>
    </rdf:RDF>
  </metadata>
  <g
     inkscape:label="Layer 1"
     inkscape:groupmode="layer"
     id="layer1"
     transform="translate(-49.866057,-87.232123)">
    <path
       inkscape:connector-curvature="0"
       id="path9758"
       d="m 114.75782,165.47342 3.72387,0.0417 v 5.2987 h 1.48044 l -3.34266,4.16032 -3.34207,-4.16032 h 1.48042 z m 7.36946,7.03703 v 4.59089 h -0.82894 -9.35715 -0.82894 v -4.59089 h 0.82894 v 3.81127 h 9.35715 v -3.81127 z"
       style="fill:url(#linearGradient9760);fill-opacity:1;stroke:none;stroke-width:0.02429684px;stroke-linecap:butt;stroke-linejoin:miter;stroke-opacity:1" />
    <circle
       style="opacity:1;fill:none;fill-opacity:1;stroke:none;stroke-width:3.42307091;stroke-linejoin:bevel;stroke-miterlimit:4;stroke-dasharray:none;stroke-dashoffset:0;stroke-opacity:1"
       id="path1967-8"
       cx="115.26487"
       cy="152.63094"
       r="49.360161"
       inkscape:export-xdpi="225.46701"
       inkscape:export-ydpi="225.46701" />
    <path
       style="opacity:1;fill:none;fill-opacity:1;stroke:#8e8e8e;stroke-width:1.44786322;stroke-miterlimit:4;stroke-dasharray:none;stroke-dashoffset:0;stroke-opacity:1"
       d="m 118.9482,118.86597 c -1.85738,0 -3.35299,1.49563 -3.35299,3.35301 v 6.82802 c 0.11543,-0.0104 0.23321,-0.013 0.35023,-0.0176 v -6.2558 c 0,-1.81773 1.46364,-3.28223 3.28135,-3.28223 h 25.48043 c 1.81772,0 3.28135,1.4645 3.28135,3.28223 v 46.51111 c 0,1.81775 -1.46363,3.28226 -3.28135,3.28226 H 132.8572 v 0.53154 h 12.12866 c 1.85733,0 3.35294,-1.49562 3.35299,-3.35298 v -47.52648 c 0,-1.85737 -1.49566,-3.353 -3.35299,-3.353 z m 2.22088,4.09152 c -0.99702,0 -1.79987,0.80197 -1.79987,1.799 0,0.99702 0.80285,1.79989 1.79987,1.79989 h 21.5959 c 0.99697,0 1.79987,-0.80287 1.79987,-1.79989 0,-0.99703 -0.8029,-1.799 -1.79987,-1.799 z m 3.05317,7.41003 c 1.18771,0.8822 2.0771,2.13692 2.49508,3.59884 h 16.04765 c 0.99697,0 1.79987,-0.80197 1.79987,-1.79897 0,-0.99699 -0.8029,-1.79987 -1.79987,-1.79987 z m 2.76484,7.51614 v 3.59887 h 15.77789 c 0.99697,0 1.79987,-0.80198 1.79987,-1.799 0,-0.99702 -0.8029,-1.79987 -1.79987,-1.79987 z m 0,7.30476 v 3.59974 h 15.77789 c 0.99697,0 1.79987,-0.80282 1.79987,-1.79987 0,-0.99699 -0.8029,-1.79987 -1.79987,-1.79987 z m 4.98038,16.83307 a 2.0643207,2.0643207 0 0 0 -0.40599,0.0398 c 0.78519,0.56794 1.29572,1.49007 1.29572,2.5375 v 1.34612 a 2.0643207,2.0643207 0 0 0 1.17459,-1.86001 2.0643207,2.0643207 0 0 0 -2.06432,-2.06341 z"
       id="rect914-1-7"
       inkscape:connector-curvature="0" />
    <path
       style="opacity:1;fill:#616161;fill-opacity:1;stroke:none;stroke-width:1.85070038;stroke-miterlimit:4;stroke-dasharray:none;stroke-dashoffset:0;stroke-opacity:1"
       d="m 79.990361,129.01429 c -3.104642,0 -5.603931,2.49928 -5.603931,5.60393 v 21.74358 c 0,3.10466 2.499289,5.60393 5.603931,5.60393 h 17.30271 V 168.44 H 90.16962 v 2.79667 h 11.10264 v -6.16999 c 0,-1.68708 1.35817,-3.04519 3.04519,-3.04519 h 0.47938 v -0.0558 h 17.30271 c 3.10466,0 5.60395,-2.49927 5.60395,-5.60393 v -21.74358 c 0,-3.10465 -2.49929,-5.60393 -5.60395,-5.60393 z m 1.204658,1.41955 h 39.699011 c 2.8736,0 5.18738,2.31288 5.18738,5.18649 v 20.12589 c 0,0.30293 -0.0322,0.59692 -0.0813,0.88533 H 76.08908 c -0.0493,-0.28841 -0.0813,-0.5824 -0.0813,-0.88533 v -20.12589 c 0,-2.87361 2.313761,-5.18649 5.187369,-5.18649 z m 19.849051,28.15681 a 0.85886674,0.85886674 0 0 1 0.85791,0.8588 0.85886674,0.85886674 0 0 1 -0.85791,0.85792 0.85886674,0.85886674 0 0 1 -0.85967,-0.85792 0.85886674,0.85886674 0 0 1 0.85967,-0.8588 z"
       id="rect942-5"
       inkscape:connector-curvature="0" />
    <path
       style="opacity:1;fill:#929292;fill-opacity:1;stroke:none;stroke-width:0;stroke-miterlimit:4;stroke-dasharray:none;stroke-dashoffset:0;stroke-opacity:1"
       d="m 113.32045,188.48367 c -0.39439,0 -0.80582,0.27483 -0.92246,0.61625 l -0.62556,1.83106 c -0.11673,0.34142 0.10698,0.61625 0.50139,0.61625 h 6.45952 c 0.0542,0 0.10868,-0.006 0.16276,-0.0155 h 2.08864 c 0.39653,0 0.60732,-0.272 0.47265,-0.60999 l -0.72237,-1.81265 c -0.10169,-0.25508 -0.37017,-0.47241 -0.66624,-0.5638 -0.0803,-0.0391 -0.17745,-0.0616 -0.28879,-0.0616 z"
       id="path938-1"
       inkscape:connector-curvature="0" />
    <g
       id="g1051"
       style="fill:none;fill-opacity:1;stroke:#393939;stroke-opacity:1"
       transform="matrix(1.7115355,0,0,1.7115355,-596.97125,-292.56822)">
      <path
         style="fill:none;fill-opacity:1;stroke:#393939;stroke-width:0.71334738;stroke-linecap:butt;stroke-linejoin:miter;stroke-miterlimit:4;stroke-dasharray:none;stroke-opacity:1"
         d="m 412.24456,278.38911 h 11.92503"
         id="path932-0"
         inkscape:connector-curvature="0" />
      <path
         inkscape:connector-curvature="0"
         id="path934-6"
         d="m 408.12316,280.17125 h 17.09367"
         style="fill:none;fill-opacity:1;stroke:#393939;stroke-width:0.71334738;stroke-linecap:butt;stroke-linejoin:miter;stroke-miterlimit:4;stroke-dasharray:none;stroke-opacity:1" />
      <path
         inkscape:connector-curvature="0"
         id="path936-0"
         d="m 408.96771,278.38911 h 2.19583"
         style="fill:none;fill-opacity:1;stroke:#393939;stroke-width:0.71334738;stroke-linecap:butt;stroke-linejoin:miter;stroke-miterlimit:4;stroke-dasharray:none;stroke-opacity:1" />
      <g
         id="g1043"
         style="fill:none;fill-opacity:1;stroke:#393939;stroke-opacity:1">
        <path
           inkscape:connector-curvature="0"
           id="path930-3"
           d="m 409.4149,276.68801 c -0.89841,0 -1.83563,0.62609 -2.10133,1.40382 l -1.42499,4.17104 c -0.2657,0.77772 0.24373,1.40381 1.14214,1.40381 h 14.71448 c 0.12347,0 0.24763,-0.0128 0.37072,-0.0352 h 4.75782 c 0.90327,0 1.38346,-0.61968 1.07665,-1.38957 l -1.6455,-4.12913 c -0.23156,-0.58105 -0.84322,-1.07615 -1.51768,-1.28428 -0.18293,-0.0891 -0.40421,-0.14049 -0.65783,-0.14049 z"
           style="opacity:1;fill:none;fill-opacity:1;stroke:#393939;stroke-width:0.63694125;stroke-miterlimit:4;stroke-dasharray:none;stroke-dashoffset:0;stroke-opacity:1" />
        <rect
           style="opacity:1;fill:none;fill-opacity:1;stroke:#393939;stroke-width:0.71334738;stroke-miterlimit:4;stroke-dasharray:none;stroke-dashoffset:0;stroke-opacity:1"
           id="rect1327"
           width="17.933926"
           height="11.032382"
           x="407.96335"
           y="265.60318"
           ry="1.779229" />
      </g>
    </g>
    <path
       style="fill:url(#linearGradient1202);fill-opacity:1;stroke:none;stroke-width:0.03644349px;stroke-linecap:butt;stroke-linejoin:miter;stroke-opacity:1"
       d="m 98.25218,135.60605 5.58554,0.0626 v 7.94765 h 2.22056 l -5.01375,6.24018 -5.012879,-6.24018 h 2.220529 z m 11.05366,10.55505 v 6.88599 h -1.24336 -14.035039 -1.243352 v -6.88599 h 1.243352 v 5.71663 h 14.035039 v -5.71663 z"
       id="path1200"
       inkscape:connector-curvature="0" />
    <circle
       style="opacity:0.13800001;fill:none;fill-opacity:1;stroke:none;stroke-width:1.37567496;stroke-linejoin:round;stroke-miterlimit:4;stroke-dasharray:none;stroke-dashoffset:0;stroke-opacity:1"
       id="path28070"
       cx="115.26487"
       cy="152.63094"
       r="64.710976" />
  </g>
</svg>
