<?xml version="1.0" encoding="UTF-8" standalone="no"?>
<!-- Created with Inkscape (http://www.inkscape.org/) -->

<svg
   xmlns:dc="http://purl.org/dc/elements/1.1/"
   xmlns:cc="http://creativecommons.org/ns#"
   xmlns:rdf="http://www.w3.org/1999/02/22-rdf-syntax-ns#"
   xmlns:svg="http://www.w3.org/2000/svg"
   xmlns="http://www.w3.org/2000/svg"
   xmlns:xlink="http://www.w3.org/1999/xlink"
   xmlns:sodipodi="http://sodipodi.sourceforge.net/DTD/sodipodi-0.dtd"
   xmlns:inkscape="http://www.inkscape.org/namespaces/inkscape"
   width="130.79762mm"
   height="130.79762mm"
   viewBox="0 0 130.79762 130.79762"
   version="1.1"
   id="svg41827"
   inkscape:version="0.92.2 (5c3e80d, 2017-08-06)"
   sodipodi:docname="icon2c.svg">
  <defs
     id="defs41821">
    <linearGradient
       inkscape:collect="always"
       xlink:href="#linearGradient1198"
       id="linearGradient1835"
       x1="-138.87263"
       y1="14.690881"
       x2="-36.818832"
       y2="14.690881"
       gradientUnits="userSpaceOnUse" />
    <linearGradient
       inkscape:collect="always"
       id="linearGradient1198">
      <stop
         style="stop-color:#003062;stop-opacity:1"
         offset="0"
         id="stop1192" />
      <stop
         id="stop1194"
         offset="0.35049698"
         style="stop-color:#173f6f;stop-opacity:1" />
      <stop
         style="stop-color:#15c5ff;stop-opacity:1"
         offset="1"
         id="stop1196" />
    </linearGradient>
    <linearGradient
       inkscape:collect="always"
       xlink:href="#linearGradient9500"
       id="linearGradient9502"
       x1="-139.62384"
       y1="14.690881"
       x2="-36.067627"
       y2="14.690881"
       gradientUnits="userSpaceOnUse" />
    <linearGradient
       inkscape:collect="always"
       id="linearGradient9500">
      <stop
         style="stop-color:#09a8cb;stop-opacity:1"
         offset="0"
         id="stop9496" />
      <stop
         style="stop-color:#00d9f5;stop-opacity:1"
         offset="1"
         id="stop9498" />
    </linearGradient>
    <linearGradient
       inkscape:collect="always"
       xlink:href="#linearGradient1198"
       id="linearGradient14077"
       x1="-32.514687"
       y1="47.925396"
       x2="-65.32531"
       y2="0.11140619"
       gradientUnits="userSpaceOnUse" />
    <linearGradient
       inkscape:collect="always"
       xlink:href="#linearGradient1198"
       id="linearGradient1785"
       x1="-97.412651"
       y1="24.74802"
       x2="-16.365761"
       y2="24.992523"
       gradientUnits="userSpaceOnUse"
       gradientTransform="matrix(0.92602204,0,0,0.92602204,-7.9761409,3.2351382)" />
    <linearGradient
       inkscape:collect="always"
       xlink:href="#linearGradient1801"
       id="linearGradient1769"
       x1="-458.1543"
       y1="215.87961"
       x2="-179.90292"
       y2="23.95063"
       gradientUnits="userSpaceOnUse"
       gradientTransform="matrix(0.24500999,0,0,0.24500999,-7.9761409,3.2351382)" />
    <linearGradient
       id="linearGradient1801"
       inkscape:collect="always">
      <stop
         id="stop1795"
         offset="0"
         style="stop-color:#08fb00;stop-opacity:1" />
      <stop
         style="stop-color:#1cb30e;stop-opacity:1"
         offset="0.35049698"
         id="stop1797" />
      <stop
         id="stop1799"
         offset="1"
         style="stop-color:#11ea00;stop-opacity:1" />
    </linearGradient>
  </defs>
  <sodipodi:namedview
     id="base"
     pagecolor="#ffffff"
     bordercolor="#666666"
     borderopacity="1.0"
     inkscape:pageopacity="0.0"
     inkscape:pageshadow="2"
     inkscape:zoom="0.35"
     inkscape:cx="-841.39479"
     inkscape:cy="258.6052"
     inkscape:document-units="mm"
     inkscape:current-layer="layer1"
     showgrid="false"
     inkscape:window-width="1769"
     inkscape:window-height="1051"
     inkscape:window-x="-9"
     inkscape:window-y="-9"
     inkscape:window-maximized="1" />
  <metadata
     id="metadata41824">
    <rdf:RDF>
      <cc:Work
         rdf:about="">
        <dc:format>image/svg+xml</dc:format>
        <dc:type
           rdf:resource="http://purl.org/dc/dcmitype/StillImage" />
        <dc:title />
      </cc:Work>
    </rdf:RDF>
  </metadata>
  <g
     inkscape:label="Layer 1"
     inkscape:groupmode="layer"
     id="layer1"
     transform="translate(-53.285704,-86.458334)">
    <g
       id="g41761"
       transform="translate(202.60716,136.02469)">
      <g
         id="g41767"
         transform="translate(0,-6.8035714)">
        <path
           inkscape:connector-curvature="0"
           id="path1742"
           d="m -82.253284,-18.169592 a 28.181713,28.181713 0 0 0 -27.142496,20.7134796 20.140239,20.140239 0 0 0 -1.95297,-0.097949 20.140239,20.140239 0 0 0 -20.14018,20.1401794 20.140239,20.140239 0 0 0 0.43897,4.072658 10.636678,10.636678 0 0 0 -7.82268,10.255785 10.636678,10.636678 0 0 0 10.6368,10.636797 10.636678,10.636678 0 0 0 0.5557,-0.01957 c 0.10107,0.0076 0.20229,0.01516 0.30544,0.01516 h 51.953419 c 2.142984,0 3.868362,-1.725378 3.868362,-3.868361 v -7.618784 a 28.181713,28.181713 0 0 0 2.303584,-1.058645 20.140239,20.140239 0 0 0 12.290319,4.21618 20.140239,20.140239 0 0 0 20.140183,-20.140168 20.140239,20.140239 0 0 0 -19.5409,-20.1102007 28.181713,28.181713 0 0 0 -25.893551,-17.1365653 z"
           style="opacity:1;fill:url(#linearGradient1835);fill-opacity:1;stroke:url(#linearGradient9502);stroke-width:1;stroke-miterlimit:4;stroke-dasharray:none;stroke-dashoffset:0;stroke-opacity:1" />
        <path
           inkscape:connector-curvature="0"
           id="path1744"
           d="m -78.730606,-5.7664619 a 27.777226,27.777226 0 0 0 -27.619014,24.8754879 15.369532,15.369532 0 0 0 -1.19862,-0.0604 15.369532,15.369532 0 0 0 -15.36972,15.369723 15.369532,15.369532 0 0 0 15.12894,15.357455 c 0.21382,0.03609 0.43228,0.05871 0.65666,0.05871 h 55.162724 c 0.221508,0 0.437112,-0.02262 0.64834,-0.05777 A 22.654049,22.654049 0 0 0 -28.972625,27.133818 22.654049,22.654049 0 0 0 -51.62686,4.4795801 22.654049,22.654049 0 0 0 -56.725149,5.0893952 27.777226,27.777226 0 0 0 -78.730606,-5.7664619 Z"
           style="opacity:1;fill:#ffffff;fill-opacity:1;stroke:url(#linearGradient14077);stroke-width:1;stroke-miterlimit:4;stroke-dasharray:none;stroke-dashoffset:0;stroke-opacity:1" />
        <path
           style="opacity:1;fill:none;fill-opacity:1;stroke:url(#linearGradient1785);stroke-width:1.83841467;stroke-miterlimit:4;stroke-dasharray:none;stroke-dashoffset:0;stroke-opacity:1"
           d="m -79.110007,7.9987474 a 18.15366,18.15366 0 0 0 -18.153189,18.1540066 18.15366,18.15366 0 0 0 18.153189,18.153202 18.15366,18.15366 0 0 0 18.154025,-18.153201 18.15366,18.15366 0 0 0 -0.96986,-5.800817 l -0.978193,0.979027 a 16.884771,16.884771 0 0 1 0.67907,4.70765 16.884771,16.884771 0 0 1 -16.885042,16.884206 16.884771,16.884771 0 0 1 -16.884208,-16.884206 16.884771,16.884771 0 0 1 16.884208,-16.8850436 16.884771,16.884771 0 0 1 12.966445,6.0932846 l 0.856545,-0.855714 a 18.15366,18.15366 0 0 0 -13.82299,-6.3923946 z"
           id="path1746"
           inkscape:connector-curvature="0" />
        <path
           inkscape:connector-curvature="0"
           style="opacity:1;fill:url(#linearGradient1769);fill-opacity:1;stroke:none;stroke-width:2.42804861;stroke-miterlimit:4;stroke-dasharray:none;stroke-dashoffset:0;stroke-opacity:1"
           d="m -55.134821,7.7022634 c -0.355117,0.01088 -0.714427,0.157891 -0.994875,0.438338 l -23.06013,23.0601286 -8.638038,-8.638036 c -0.236858,-0.236859 -0.618282,-0.236859 -0.855141,0 l -1.04943,1.049427 c -0.236858,0.236859 -0.236858,0.618284 0,0.855143 l 9.590324,9.590322 0.524475,0.524476 c 0.236859,0.236859 0.618283,0.236859 0.855142,0 l 0.58477,-0.58477 0.464656,-0.464658 23.487465,-23.487463 c 0.560893,-0.5608936 0.587835,-1.4373226 0.06029,-1.9648646 -0.263771,-0.263771 -0.614395,-0.388924 -0.969512,-0.378043 z"
           id="rect1748" />
      </g>
    </g>
    <circle
       style="opacity:0.13800001;fill:none;fill-opacity:1;stroke:none;stroke-width:1.37567496;stroke-linejoin:round;stroke-miterlimit:4;stroke-dasharray:none;stroke-dashoffset:0;stroke-opacity:1"
       id="path28070"
       cx="118.68452"
       cy="151.85715"
       r="64.710976" />
  </g>
</svg>
