<?xml version="1.0" encoding="UTF-8" standalone="no"?>
<!-- Created with Inkscape (http://www.inkscape.org/) -->

<svg
   xmlns:dc="http://purl.org/dc/elements/1.1/"
   xmlns:cc="http://creativecommons.org/ns#"
   xmlns:rdf="http://www.w3.org/1999/02/22-rdf-syntax-ns#"
   xmlns:svg="http://www.w3.org/2000/svg"
   xmlns="http://www.w3.org/2000/svg"
   xmlns:xlink="http://www.w3.org/1999/xlink"
   xmlns:sodipodi="http://sodipodi.sourceforge.net/DTD/sodipodi-0.dtd"
   xmlns:inkscape="http://www.inkscape.org/namespaces/inkscape"
   width="130.79762mm"
   height="130.79762mm"
   viewBox="0 0 130.79762 130.79762"
   version="1.1"
   id="svg19098"
   inkscape:version="0.92.2 (5c3e80d, 2017-08-06)"
   sodipodi:docname="icon2c altG.svg">
  <defs
     id="defs19092">
    <linearGradient
       inkscape:collect="always"
       xlink:href="#linearGradient5366"
       id="linearGradient1785"
       x1="-95.779961"
       y1="3.3189945"
       x2="-25.549629"
       y2="78.871216"
       gradientUnits="userSpaceOnUse"
       gradientTransform="matrix(0.92602205,0,0,0.92602205,178.75602,130.18839)" />
    <linearGradient
       inkscape:collect="always"
       id="linearGradient5366">
      <stop
         style="stop-color:#fff4df;stop-opacity:1"
         offset="0"
         id="stop5354" />
      <stop
         id="stop5356"
         offset="0.07907566"
         style="stop-color:#ffdfa2;stop-opacity:1" />
      <stop
         style="stop-color:#e9bf6c;stop-opacity:1"
         offset="0.31252655"
         id="stop5358" />
      <stop
         id="stop5360"
         offset="0.66750771"
         style="stop-color:#c7a259;stop-opacity:1" />
      <stop
         style="stop-color:#3c2f15;stop-opacity:1;"
         offset="0.90416181"
         id="stop5362" />
      <stop
         style="stop-color:#1a150a;stop-opacity:1"
         offset="1"
         id="stop5364" />
    </linearGradient>
    <linearGradient
       gradientTransform="translate(187.4762,128.79539)"
       inkscape:collect="always"
       xlink:href="#linearGradient1198"
       id="linearGradient19050"
       x1="-124.162"
       y1="20.191895"
       x2="-29.216663"
       y2="20.191895"
       gradientUnits="userSpaceOnUse" />
    <linearGradient
       inkscape:collect="always"
       id="linearGradient1198">
      <stop
         style="stop-color:#003062;stop-opacity:1"
         offset="0"
         id="stop1192" />
      <stop
         id="stop1194"
         offset="0.35049698"
         style="stop-color:#173f6f;stop-opacity:1" />
      <stop
         style="stop-color:#15c5ff;stop-opacity:1"
         offset="1"
         id="stop1196" />
    </linearGradient>
    <linearGradient
       inkscape:collect="always"
       xlink:href="#linearGradient1198"
       id="linearGradient1835"
       x1="-106.36668"
       y1="-13.279358"
       x2="-37.763771"
       y2="55.134335"
       gradientUnits="userSpaceOnUse"
       gradientTransform="translate(186.73216,126.95326)" />
  </defs>
  <sodipodi:namedview
     id="base"
     pagecolor="#ffffff"
     bordercolor="#666666"
     borderopacity="1.0"
     inkscape:pageopacity="0.0"
     inkscape:pageshadow="2"
     inkscape:zoom="0.98994949"
     inkscape:cx="352.597"
     inkscape:cy="311.27313"
     inkscape:document-units="mm"
     inkscape:current-layer="layer1"
     showgrid="false"
     inkscape:window-width="1769"
     inkscape:window-height="1051"
     inkscape:window-x="-9"
     inkscape:window-y="-9"
     inkscape:window-maximized="1" />
  <metadata
     id="metadata19095">
    <rdf:RDF>
      <cc:Work
         rdf:about="">
        <dc:format>image/svg+xml</dc:format>
        <dc:type
           rdf:resource="http://purl.org/dc/dcmitype/StillImage" />
        <dc:title></dc:title>
      </cc:Work>
    </rdf:RDF>
  </metadata>
  <g
     inkscape:label="Layer 1"
     inkscape:groupmode="layer"
     id="layer1"
     transform="translate(-37.410704,-84.190466)">
    <path
       inkscape:connector-curvature="0"
       id="path1742"
       d="m 104.47888,108.78367 a 28.181713,28.181713 0 0 0 -27.142503,20.71348 20.140239,20.140239 0 0 0 -1.95297,-0.0979 20.140239,20.140239 0 0 0 -20.140179,20.14018 20.140239,20.140239 0 0 0 0.43897,4.07266 10.636678,10.636678 0 0 0 -7.82268,10.25578 10.636678,10.636678 0 0 0 10.636799,10.6368 10.636678,10.636678 0 0 0 0.5557,-0.0196 c 0.10107,0.008 0.20229,0.0152 0.30544,0.0152 h 51.953423 c 2.14299,0 3.86836,-1.72538 3.86836,-3.86836 v -7.61878 a 28.181713,28.181713 0 0 0 2.30359,-1.05865 20.140239,20.140239 0 0 0 12.29032,4.21618 20.140239,20.140239 0 0 0 20.14018,-20.14017 20.140239,20.140239 0 0 0 -19.5409,-20.1102 28.181713,28.181713 0 0 0 -25.89355,-17.13657 z"
       style="opacity:1;fill:url(#linearGradient1835);fill-opacity:1;stroke:none;stroke-width:1;stroke-miterlimit:4;stroke-dasharray:none;stroke-dashoffset:0;stroke-opacity:1" />
    <path
       inkscape:connector-curvature="0"
       id="path1744"
       d="m 108.00156,121.1868 a 27.777226,27.777226 0 0 0 -27.619023,24.87548 15.369532,15.369532 0 0 0 -1.19862,-0.0604 15.369532,15.369532 0 0 0 -15.36972,15.36973 15.369532,15.369532 0 0 0 15.12894,15.35746 c 0.21382,0.0361 0.43228,0.0587 0.65666,0.0587 h 55.162733 c 0.2215,0 0.43711,-0.0226 0.64834,-0.0578 a 22.654049,22.654049 0 0 0 22.34867,-22.64293 22.654049,22.654049 0 0 0 -22.65424,-22.65424 22.654049,22.654049 0 0 0 -5.09829,0.60981 27.777226,27.777226 0 0 0 -22.00545,-10.85585 z"
       style="opacity:1;fill:#7b7b7b;fill-opacity:1;stroke:url(#linearGradient19050);stroke-width:1;stroke-miterlimit:4;stroke-dasharray:none;stroke-dashoffset:0;stroke-opacity:0.08500001" />
    <path
       style="opacity:1;fill:none;fill-opacity:1;stroke:url(#linearGradient1785);stroke-width:1.83841467;stroke-miterlimit:4;stroke-dasharray:none;stroke-dashoffset:0;stroke-opacity:1"
       d="m 107.62215,134.952 a 18.15366,18.15366 0 0 0 -18.153183,18.15402 18.15366,18.15366 0 0 0 18.153183,18.1532 18.15366,18.15366 0 0 0 18.15403,-18.1532 18.15366,18.15366 0 0 0 -0.96986,-5.80082 l -0.97819,0.97903 a 16.884771,16.884771 0 0 1 0.67907,4.70765 16.884771,16.884771 0 0 1 -16.88505,16.8842 16.884771,16.884771 0 0 1 -16.884203,-16.8842 16.884771,16.884771 0 0 1 16.884203,-16.88505 16.884771,16.884771 0 0 1 12.96645,6.09328 l 0.85654,-0.85571 a 18.15366,18.15366 0 0 0 -13.82299,-6.3924 z"
       id="path1746"
       inkscape:connector-curvature="0" />
    <path
       inkscape:connector-curvature="0"
       style="opacity:1;fill:#ffffff;fill-opacity:1;stroke:none;stroke-width:2.42804861;stroke-miterlimit:4;stroke-dasharray:none;stroke-dashoffset:0;stroke-opacity:1"
       d="m 131.59734,134.65552 c -0.35512,0.0109 -0.71443,0.15789 -0.99487,0.43834 l -23.06013,23.06013 -8.638043,-8.63803 c -0.23686,-0.23686 -0.61828,-0.23686 -0.85514,0 l -1.04943,1.04942 c -0.23686,0.23686 -0.23686,0.61829 0,0.85515 l 9.590323,9.59032 0.52448,0.52447 c 0.23686,0.23686 0.61828,0.23686 0.85514,0 l 0.58477,-0.58477 0.46465,-0.46465 23.48747,-23.48747 c 0.56089,-0.56089 0.58783,-1.43732 0.0603,-1.96487 -0.26377,-0.26377 -0.6144,-0.38892 -0.96951,-0.37804 z"
       id="rect1748" />
    <circle
       style="opacity:0.13800001;fill:none;fill-opacity:1;stroke:none;stroke-width:1.37567496;stroke-linejoin:round;stroke-miterlimit:4;stroke-dasharray:none;stroke-dashoffset:0;stroke-opacity:1"
       id="path28070"
       cx="102.80952"
       cy="149.58928"
       r="64.710976" />
  </g>
</svg>
