<?xml version="1.0" encoding="UTF-8" standalone="no"?>
<!-- Created with Inkscape (http://www.inkscape.org/) -->

<svg
   xmlns:dc="http://purl.org/dc/elements/1.1/"
   xmlns:cc="http://creativecommons.org/ns#"
   xmlns:rdf="http://www.w3.org/1999/02/22-rdf-syntax-ns#"
   xmlns:svg="http://www.w3.org/2000/svg"
   xmlns="http://www.w3.org/2000/svg"
   xmlns:xlink="http://www.w3.org/1999/xlink"
   xmlns:sodipodi="http://sodipodi.sourceforge.net/DTD/sodipodi-0.dtd"
   xmlns:inkscape="http://www.inkscape.org/namespaces/inkscape"
   width="47.164047mm"
   height="63.275345mm"
   viewBox="0 0 47.164047 63.275345"
   version="1.1"
   id="svg23535"
   inkscape:version="0.92.2 (5c3e80d, 2017-08-06)"
   sodipodi:docname="icon3.svg">
  <defs
     id="defs23529">
    <radialGradient
       inkscape:collect="always"
       xlink:href="#linearGradient23404"
       id="radialGradient23484"
       cx="-89.123383"
       cy="72.497726"
       fx="-89.123383"
       fy="72.497726"
       r="4.4378586"
       gradientTransform="matrix(1.2880806,0,0,1.2790828,160.87139,11.667786)"
       gradientUnits="userSpaceOnUse" />
    <linearGradient
       inkscape:collect="always"
       id="linearGradient23404">
      <stop
         style="stop-color:#bcbcbc;stop-opacity:1"
         offset="0"
         id="stop23400" />
      <stop
         style="stop-color:#555555;stop-opacity:1"
         offset="1"
         id="stop23402" />
    </linearGradient>
    <radialGradient
       inkscape:collect="always"
       xlink:href="#linearGradient23474"
       id="radialGradient23468"
       cx="-86.626701"
       cy="63.890312"
       fx="-86.626701"
       fy="63.890312"
       r="4.4378586"
       gradientTransform="matrix(0.13752224,-1.1576741,1.1654946,0.13845125,-9.6995117,-12.392453)"
       gradientUnits="userSpaceOnUse" />
    <linearGradient
       id="linearGradient23474"
       inkscape:collect="always">
      <stop
         id="stop23470"
         offset="0"
         style="stop-color:#bcbcbc;stop-opacity:1" />
      <stop
         id="stop23472"
         offset="1"
         style="stop-color:#2d2d2d;stop-opacity:1" />
    </linearGradient>
    <radialGradient
       inkscape:collect="always"
       xlink:href="#linearGradient23482"
       id="radialGradient23476"
       cx="-97.452728"
       cy="59.062988"
       fx="-97.452728"
       fy="59.062988"
       r="8.0145636"
       gradientTransform="matrix(1.1014214,0,0,1.0820362,149.05308,26.329121)"
       gradientUnits="userSpaceOnUse" />
    <linearGradient
       inkscape:collect="always"
       id="linearGradient23482">
      <stop
         style="stop-color:#111111;stop-opacity:1"
         offset="0"
         id="stop23478" />
      <stop
         style="stop-color:#828282;stop-opacity:1"
         offset="1"
         id="stop23480" />
    </linearGradient>
    <linearGradient
       inkscape:collect="always"
       xlink:href="#linearGradient23414"
       id="linearGradient23368"
       gradientUnits="userSpaceOnUse"
       gradientTransform="matrix(0.73806359,0,0,0.73806359,56.139157,36.136559)"
       x1="-30.937307"
       y1="61.314827"
       x2="-6.7988076"
       y2="84.362671" />
    <linearGradient
       id="linearGradient23414"
       inkscape:collect="always">
      <stop
         id="stop23408"
         offset="0"
         style="stop-color:#003062;stop-opacity:1" />
      <stop
         style="stop-color:#173f6f;stop-opacity:1"
         offset="0.35049698"
         id="stop23410" />
      <stop
         id="stop23412"
         offset="1"
         style="stop-color:#4b450c;stop-opacity:1" />
    </linearGradient>
    <linearGradient
       gradientTransform="translate(137.76612,31.176798)"
       inkscape:collect="always"
       xlink:href="#linearGradient1198"
       id="linearGradient23492"
       x1="-111.18407"
       y1="45.07589"
       x2="-51.324734"
       y2="130.33487"
       gradientUnits="userSpaceOnUse" />
    <linearGradient
       inkscape:collect="always"
       id="linearGradient1198">
      <stop
         style="stop-color:#003062;stop-opacity:1"
         offset="0"
         id="stop1192" />
      <stop
         id="stop1194"
         offset="0.35049698"
         style="stop-color:#173f6f;stop-opacity:1" />
      <stop
         style="stop-color:#15c5ff;stop-opacity:1"
         offset="1"
         id="stop1196" />
    </linearGradient>
  </defs>
  <sodipodi:namedview
     id="base"
     pagecolor="#ffffff"
     bordercolor="#666666"
     borderopacity="1.0"
     inkscape:pageopacity="0.0"
     inkscape:pageshadow="2"
     inkscape:zoom="0.98994949"
     inkscape:cx="37.254122"
     inkscape:cy="140.54509"
     inkscape:document-units="mm"
     inkscape:current-layer="layer1"
     showgrid="false"
     inkscape:window-width="1769"
     inkscape:window-height="1051"
     inkscape:window-x="-9"
     inkscape:window-y="-9"
     inkscape:window-maximized="1" />
  <metadata
     id="metadata23532">
    <rdf:RDF>
      <cc:Work
         rdf:about="">
        <dc:format>image/svg+xml</dc:format>
        <dc:type
           rdf:resource="http://purl.org/dc/dcmitype/StillImage" />
        <dc:title></dc:title>
      </cc:Work>
    </rdf:RDF>
  </metadata>
  <g
     inkscape:label="Layer 1"
     inkscape:groupmode="layer"
     id="layer1"
     transform="translate(-24.042977,-75.618281)">
    <path
       inkscape:connector-curvature="0"
       style="opacity:1;fill:url(#linearGradient23492);fill-opacity:1;stroke:none;stroke-width:1;stroke-miterlimit:4;stroke-dasharray:none;stroke-dashoffset:0;stroke-opacity:0.98360656"
       d="m 44.528681,75.618281 a 20.486041,20.486041 0 0 0 -20.485704,20.486326 20.486041,20.486041 0 0 0 20.485704,20.485723 20.486041,20.486041 0 0 0 8.96554,-2.08249 c -0.212669,0.61991 -0.167147,1.32434 0.18777,1.93908 l 12.279156,21.26901 c 0.651455,1.12836 2.084393,1.51192 3.212746,0.86046 l 0.854988,-0.49342 c 1.128352,-0.65145 1.512519,-2.08439 0.861068,-3.21275 L 58.610184,113.60121 c -0.385975,-0.66853 -1.046234,-1.07284 -1.754947,-1.15822 A 20.486041,20.486041 0 0 0 65.015008,96.104607 20.486041,20.486041 0 0 0 44.528681,75.618281 Z"
       id="circle1924-6" />
    <circle
       r="16.760859"
       cy="96.086624"
       cx="44.522457"
       id="circle23386"
       style="opacity:1;fill:#ffffff;fill-opacity:1;stroke:#ffffff;stroke-width:0.95378637;stroke-linejoin:round;stroke-miterlimit:4;stroke-dasharray:none;stroke-dashoffset:0;stroke-opacity:0.98360656" />
    <path
       inkscape:connector-curvature="0"
       id="path1928-5"
       d="m 41.20463,82.22978 c -0.368084,0 -0.664377,0.296288 -0.664377,0.664371 v 1.264535 a 6.3483712,6.3483712 0 0 0 -2.553434,1.106941 l -0.887212,-0.887201 c -0.26027,-0.260274 -0.67946,-0.260274 -0.93973,0 l -0.72411,0.724113 c -0.26028,0.260274 -0.26028,0.679458 0,0.939731 l 0.93664,0.936642 a 6.3483712,6.3483712 0 0 0 -0.89029,2.237574 h -1.26419 c -0.368069,0 -0.664369,0.296286 -0.664369,0.664369 v 1.024195 c 0,0.368085 0.2963,0.66437 0.664369,0.66437 h 1.26453 a 6.3483712,6.3483712 0 0 0 0.88103,2.23414 l -0.91158,0.911576 c -0.26028,0.260277 -0.26028,0.679115 0,0.939391 l 0.72411,0.724113 c 0.26027,0.260274 0.67946,0.260274 0.93974,0 l 0.862812,-0.862826 a 6.3483712,6.3483712 0 0 0 2.561684,1.111406 v 0.953467 c 0,0.368082 0.296293,0.664369 0.664377,0.664369 h 1.02385 c 0.368084,0 0.664371,-0.296287 0.664371,-0.664369 v -0.953811 a 6.3483712,6.3483712 0 0 0 2.268818,-0.902994 l 0.965826,0.965827 c 0.260271,0.260274 0.679455,0.260274 0.93973,0 l 0.724115,-0.724112 c 0.260277,-0.260277 0.260277,-0.679459 0,-0.939734 l -0.92737,-0.927372 a 6.3483712,6.3483712 0 0 0 1.087022,-2.52907 h 1.264195 c 0.368083,0 0.66437,-0.296285 0.66437,-0.66437 v -1.024196 c 0,-0.368083 -0.296287,-0.664369 -0.66437,-0.664369 h -1.264539 a 6.3483712,6.3483712 0 0 0 -0.889947,-2.249933 l 0.997075,-0.997071 c 0.26027,-0.260274 0.26027,-0.679114 0,-0.939388 l -0.724115,-0.724456 c -0.260276,-0.260275 -0.679459,-0.260275 -0.939731,0 l -0.953469,0.953466 a 6.3483712,6.3483712 0 0 0 -2.54761,-1.100761 v -1.264192 c 0,-0.368083 -0.296287,-0.664371 -0.664371,-0.664371 z m 0.511928,4.765958 a 3.2416221,3.2416221 0 0 1 3.241509,3.241509 3.2416221,3.2416221 0 0 1 -3.241509,3.241854 3.2416221,3.2416221 0 0 1 -3.241523,-3.241855 3.2416221,3.2416221 0 0 1 3.241523,-3.241508 z"
       style="opacity:1;fill:url(#radialGradient23476);fill-opacity:1;stroke:url(#linearGradient23368);stroke-width:1.32882202;stroke-miterlimit:4;stroke-dasharray:none;stroke-dashoffset:0;stroke-opacity:0" />
    <path
       style="opacity:1;fill:url(#radialGradient23468);fill-opacity:1;stroke:none;stroke-width:0.85652798;stroke-miterlimit:4;stroke-dasharray:none;stroke-dashoffset:0;stroke-opacity:0"
       d="m 55.158628,91.971318 c -0.20547,-0.118627 -0.466355,-0.04872 -0.584983,0.156747 l -0.407546,0.705887 a 4.0920136,4.0920136 0 0 0 -1.782138,-0.205028 l -0.20932,-0.781189 c -0.0614,-0.229174 -0.295402,-0.364271 -0.524576,-0.302866 l -0.637588,0.170842 c -0.229174,0.06141 -0.364273,0.295403 -0.302866,0.524577 l 0.220983,0.824722 a 4.0920136,4.0920136 0 0 0 -1.218121,0.962127 l -0.705698,-0.407435 c -0.205471,-0.118627 -0.466354,-0.04872 -0.584983,0.156747 l -0.330086,0.571727 c -0.118629,0.205472 -0.04872,0.466353 0.156745,0.584983 l 0.705889,0.407545 a 4.0920136,4.0920136 0 0 0 -0.228234,1.531084 l -0.802651,0.21507 c -0.229176,0.0614 -0.364162,0.295211 -0.302754,0.524386 l 0.17084,0.637587 c 0.0614,0.229174 0.295403,0.364272 0.524578,0.302866 l 0.759721,-0.20357 a 4.0920136,4.0920136 0 0 0 1.071793,1.446011 l -0.307291,0.532242 c -0.118629,0.20547 -0.04872,0.46636 0.156747,0.58498 l 0.571534,0.32998 c 0.205473,0.11863 0.466355,0.0487 0.584983,-0.15674 l 0.307404,-0.53244 a 4.0920136,4.0920136 0 0 0 1.557522,0.22714 l 0.22787,0.85042 c 0.0614,0.22917 0.295402,0.36427 0.524576,0.30287 l 0.637591,-0.17084 c 0.229174,-0.0614 0.364273,-0.29541 0.302863,-0.52458 l -0.218795,-0.81656 a 4.0920136,4.0920136 0 0 0 1.42189,-1.061442 l 0.705696,0.407435 c 0.205473,0.118629 0.466355,0.04872 0.584983,-0.156745 l 0.330089,-0.571726 c 0.118626,-0.205471 0.04872,-0.466355 -0.156747,-0.584984 l -0.705895,-0.407547 a 4.0920136,4.0920136 0 0 0 0.228346,-1.542776 l 0.87793,-0.235239 c 0.229171,-0.06141 0.364159,-0.295213 0.302755,-0.524385 L 57.910951,95.10542 c -0.0614,-0.229174 -0.295405,-0.364272 -0.524576,-0.302864 l -0.839537,0.22495 a 4.0920136,4.0920136 0 0 0 -1.067363,-1.435532 l 0.407434,-0.705697 c 0.118629,-0.205472 0.04872,-0.466354 -0.156747,-0.584983 z m -1.250244,2.825442 a 2.0894748,2.0894748 0 0 1 0.764773,2.854175 2.0894748,2.0894748 0 0 1 -2.854288,0.764966 2.0894748,2.0894748 0 0 1 -0.764667,-2.854369 2.0894748,2.0894748 0 0 1 2.854182,-0.764772 z"
       id="path2497-6"
       inkscape:connector-curvature="0" />
    <path
       inkscape:connector-curvature="0"
       id="path2519-0"
       d="m 48.587929,99.202868 c -0.223922,-0.129281 -0.508232,-0.05309 -0.637513,0.170821 l -0.444142,0.769271 a 4.4594634,4.4594634 0 0 0 -1.942169,-0.223435 l -0.228117,-0.851337 c -0.06692,-0.249753 -0.321928,-0.396983 -0.571681,-0.330062 l -0.694842,0.186183 c -0.249752,0.06693 -0.396981,0.321929 -0.33006,0.571682 l 0.240827,0.898779 a 4.4594634,4.4594634 0 0 0 -1.327505,1.04852 l -0.769068,-0.44402 c -0.223922,-0.12928 -0.508231,-0.0531 -0.637512,0.17082 l -0.359727,0.62307 c -0.129283,0.22392 -0.05309,0.50823 0.17082,0.63751 l 0.769275,0.44414 a 4.4594634,4.4594634 0 0 0 -0.248727,1.66858 l -0.874728,0.23438 c -0.249755,0.0669 -0.396861,0.32172 -0.329941,0.57147 l 0.186182,0.69484 c 0.06692,0.24975 0.32193,0.39698 0.571683,0.33006 l 0.827943,-0.22185 a 4.4594634,4.4594634 0 0 0 1.168037,1.57586 l -0.334886,0.58004 c -0.129281,0.22392 -0.0531,0.50823 0.170821,0.63751 l 0.622858,0.35961 c 0.223922,0.12928 0.508231,0.0531 0.637513,-0.17082 l 0.335006,-0.58025 a 4.4594634,4.4594634 0 0 0 1.697384,0.24754 l 0.248331,0.92679 c 0.06692,0.24975 0.321928,0.39698 0.571682,0.33005 l 0.694842,-0.18617 c 0.249755,-0.0669 0.396984,-0.32194 0.330061,-0.57169 l -0.238443,-0.88988 a 4.4594634,4.4594634 0 0 0 1.54957,-1.15676 l 0.769069,0.44402 c 0.223922,0.12929 0.508231,0.0531 0.637514,-0.17082 l 0.359725,-0.62306 c 0.129281,-0.22392 0.05309,-0.50823 -0.17082,-0.63751 L 50.23791,105.8226 a 4.4594634,4.4594634 0 0 0 0.248847,-1.68131 l 0.956769,-0.25637 c 0.249748,-0.0669 0.396859,-0.32172 0.329938,-0.57147 l -0.186063,-0.69505 c -0.06692,-0.24975 -0.321932,-0.39698 -0.57168,-0.33006 l -0.914924,0.24515 a 4.4594634,4.4594634 0 0 0 -1.163212,-1.56444 l 0.444022,-0.76906 c 0.129281,-0.223925 0.05309,-0.508234 -0.170822,-0.637516 z m -1.362511,3.079162 a 2.277103,2.277103 0 0 1 0.833446,3.11047 2.277103,2.277103 0 0 1 -3.110592,0.83365 2.277103,2.277103 0 0 1 -0.833333,-3.11068 2.277103,2.277103 0 0 1 3.110479,-0.83344 z"
       style="opacity:0.731;fill:url(#radialGradient23484);fill-opacity:1;stroke:none;stroke-width:1.28808057;stroke-miterlimit:4;stroke-dasharray:none;stroke-dashoffset:0;stroke-opacity:1" />
  </g>
</svg>
